<svg viewBox="0 0 800 600" xmlns="http://www.w3.org/2000/svg">
  <!-- Background -->
  <rect x="0" y="0" width="800" height="600" fill="#f5f5f5" />
  
  <!-- Main panel -->
  <rect x="10" y="10" width="780" height="580" rx="5" ry="5" fill="white" stroke="#cccccc" stroke-width="1" />
  
  <!-- Settings section -->
  <rect x="20" y="20" width="760" height="200" rx="5" ry="5" fill="#f9f9f9" stroke="#e0e0e0" stroke-width="1" />
  <text x="30" y="40" font-family="Arial" font-size="14" font-weight="bold">Analysis Settings</text>
  
  <!-- Settings fields -->
  <!-- Dockerfile -->
  <text x="30" y="70" font-family="Arial" font-size="12">Dockerfile:</text>
  <rect x="120" y="55" width="550" height="25" rx="3" ry="3" fill="white" stroke="#cccccc" stroke-width="1" />
  <text x="130" y="72" font-family="Arial" font-size="12" fill="#999999">/path/to/Dockerfile</text>
  <rect x="680" y="55" width="90" height="25" rx="3" ry="3" fill="#4a86e8" stroke="#3a76d8" stroke-width="1" />
  <text x="700" y="72" font-family="Arial" font-size="12" fill="white">Browse...</text>
  
  <!-- Version threshold -->
  <text x="30" y="105" font-family="Arial" font-size="12">Version Threshold:</text>
  <rect x="120" y="90" width="80" height="25" rx="3" ry="3" fill="white" stroke="#cccccc" stroke-width="1" />
  <text x="155" y="107" font-family="Arial" font-size="12">3</text>
  <path d="M180 95 L190 95 L185 90 Z" fill="#666666" />
  <path d="M180 110 L190 110 L185 115 Z" fill="#666666" />
  
  <!-- Version level -->
  <text x="30" y="140" font-family="Arial" font-size="12">Version Level:</text>
  <rect x="120" y="125" width="200" height="25" rx="3" ry="3" fill="white" stroke="#cccccc" stroke-width="1" />
  <text x="130" y="142" font-family="Arial" font-size="12">Automatic Detection</text>
  <path d="M305 130 L315 137 L305 144 Z" fill="#666666" />
  
  <!-- Private registries -->
  <text x="30" y="175" font-family="Arial" font-size="12">Private Registries:</text>
  <rect x="120" y="160" width="550" height="25" rx="3" ry="3" fill="white" stroke="#cccccc" stroke-width="1" />
  <text x="130" y="177" font-family="Arial" font-size="12" fill="#999999">Enter private registries separated by commas</text>
  
  <!-- Analyze button -->
  <rect x="330" y="195" width="140" height="35" rx="5" ry="5" fill="#4caf50" stroke="#388e3c" stroke-width="1" />
  <text x="375" y="217" font-family="Arial" font-size="14" font-weight="bold" fill="white">Analyze</text>
  
  <!-- Tabs -->
  <rect x="20" y="230" width="760" height="350" rx="5" ry="5" fill="white" stroke="#e0e0e0" stroke-width="1" />
  
  <!-- Tab headers -->
  <rect x="20" y="230" width="100" height="30" rx="5" ry="5" fill="#e0e0e0" stroke="#d0d0d0" stroke-width="1" />
  <text x="55" y="250" font-family="Arial" font-size="12" font-weight="bold">Logs</text>
  
  <rect x="120" y="230" width="100" height="30" rx="5" ry="5" fill="#f0f0f0" stroke="#d0d0d0" stroke-width="1" />
  <text x="150" y="250" font-family="Arial" font-size="12">Results</text>
  
  <!-- Logs panel -->
  <rect x="20" y="260" width="760" height="320" rx="0" ry="0" fill="white" stroke="#e0e0e0" stroke-width="1" />
  <text x="30" y="280" font-family="Courier New" font-size="12" fill="#333333">Analyzing Dockerfile: /path/to/Dockerfile</text>
  <text x="30" y="300" font-family="Courier New" font-size="12" fill="#333333">Found 3 images in Dockerfile</text>
  <text x="30" y="320" font-family="Courier New" font-size="12" fill="#333333">Analyzing image 1 of 3: node:14</text>
  <text x="30" y="340" font-family="Courier New" font-size="12" fill="#333333">Downloading tags...</text>
  <text x="30" y="360" font-family="Courier New" font-size="12" fill="#333333">Using major version level (1) for comparison</text>
  <text x="30" y="380" font-family="Courier New" font-size="12" fill="#333333">Sample of version tags:</text>
  <text x="30" y="400" font-family="Courier New" font-size="12" fill="#333333">  - 14.0.0</text>
  <text x="30" y="420" font-family="Courier New" font-size="12" fill="#333333">  - 14.16.0</text>
  <text x="30" y="440" font-family="Courier New" font-size="12" fill="#333333">  - 16.0.0</text>
  <text x="30" y="460" font-family="Courier New" font-size="12" fill="#333333">  - 18.0.0</text>
  <text x="30" y="480" font-family="Courier New" font-size="12" fill="#333333">  - 20.0.0</text>
  <text x="30" y="500" font-family="Courier New" font-size="12" fill="#FF0000" font-weight="bold">STATUS: OUTDATED - Image is 2 major version(s) behind</text>
  
  <!-- Status bar -->
  <rect x="0" y="580" width="800" height="20" fill="#f0f0f0" stroke="#e0e0e0" stroke-width="1" />
  <text x="10" y="594" font-family="Arial" font-size="12" fill="#666666">Analysis completed</text>
</svg>
